<svg xmlns="http://www.w3.org/2000/svg" viewBox="0 0 24 24" fill="none" stroke="currentColor" stroke-width="2" stroke-linecap="round" stroke-linejoin="round"><path d="M12 8.5a3.5 3.5 0 100 7 3.5 3.5 0 000-7zm9 3.5l-2 .5a7.8 7.8 0 01-.8 2l1.2 1.7-2.1 2.1-1.7-1.2a7.8 7.8 0 01-2 .8L12 21l-2-.5a7.8 7.8 0 01-2-.8L6.3 19 4.2 16.9l1.2-1.7a7.8 7.8 0 01-.8-2L2 12l.5-2 2-.5a7.8 7.8 0 01.8-2L4.9 6.3 7 4.2l1.7 1.2a7.8 7.8 0 012-.8L12 2l2 .5a7.8 7.8 0 012 .8L17.7 2.9 19.8 5l-1.2 1.7a7.8 7.8 0 01.8 2L22 12z"/></svg>