<svg xmlns="http://www.w3.org/2000/svg" viewBox="0 0 24 24" fill="none" stroke="currentColor" stroke-width="2" stroke-linecap="round" stroke-linejoin="round"><path d="M12 2a10 10 0 100 20 10 10 0 000-20zm7.9 9H16c-.2-3-1.3-5.4-2.7-7A8 8 0 0119.9 11zM12 4c1.6 1.7 2.9 4.2 3.1 7H8.9c.2-2.8 1.5-5.3 3.1-7zM4.1 13H8c.2 3 1.3 5.4 2.7 7A8 8 0 014.1 13zm3.2-2H4.1A8 8 0 018.7 4c-1.4 1.6-2.5 4-2.7 7zm4.7 9c-1.6-1.7-2.9-4.2-3.1-7h6.2c-.2 2.8-1.5 5.3-3.1 7zm1.3 0c1.4-1.6 2.5-4 2.7-7h3.9a8 8 0 01-6.6 7z"/></svg>