<svg xmlns="http://www.w3.org/2000/svg" width="128" height="128" viewBox="0 0 128 128">
  <defs>
    <linearGradient id="g" x1="0" y1="0" x2="1" y2="1">
      <stop offset="0" stop-color="#7ef0ff"></stop>
      <stop offset="0.45" stop-color="#74b7ff"></stop>
      <stop offset="1" stop-color="#b08bff"></stop>
    </linearGradient>
    <filter id="s" x="-20%" y="-20%" width="140%" height="140%">
      <feDropShadow dx="0" dy="10" stdDeviation="10" flood-color="#000" flood-opacity="0.35"></feDropShadow>
    </filter>
  </defs>
  <g filter="url(#s)">
    <path d="M64 16c8 20 6 38-6 56C46 90 36 104 34 112c-2-10 3-26 15-48C58 48 62 34 64 16Z" fill="url(#g)"></path>
    <path d="M64 18c2 22 12 40 30 54 10 8 16 16 18 24-10-6-20-10-30-10-12 0-22 4-30 12 8-16 12-30 12-44 0-14-4-26-0-36Z" fill="url(#g)" opacity="0.9"></path>
    <path d="M64 18c-2 22-12 40-30 54-10 8-16 16-18 24 10-6 20-10 30-10 12 0 22 4 30 12-8-16-12-30-12-44 0-14 4-26 0-36Z" fill="url(#g)" opacity="0.75"></path>
  </g>
</svg>
